<?xml version="1.0" encoding="utf-8"?>
<!-- Generator: Adobe Illustrator 22.0.1, SVG Export Plug-In . SVG Version: 6.00 Build 0)  -->
<svg version="1.1" id="Capa_1" xmlns="http://www.w3.org/2000/svg" xmlns:xlink="http://www.w3.org/1999/xlink" x="0px" y="0px"
	 viewBox="0 0 400 400" style="enable-background:new 0 0 400 400;" xml:space="preserve">
<style type="text/css">
	.st0{fill:#FFFFFF;}
</style>
<g>
	<path class="st0" d="M382.4,121.8c-10.4-24-24.5-44.9-42.3-62.7c-17.8-17.8-38.7-31.8-62.7-41.9C253.4,7,227.7,1.9,200.4,1.9
		c-18.5,0-36.3,2.3-53.2,7c-17,4.6-32.8,11.1-47.5,19.6s-28,18.7-40,30.6C47.7,71,37.4,84.4,28.9,98.9S13.7,129.3,9,146.4
		c-4.7,17.1-7.1,34.9-7.1,53.4s2.4,36.2,7.1,53.2c4.7,17,11.4,32.8,19.9,47.5c8.5,14.7,18.8,28,30.8,40c12,12,25.3,22.2,40,30.8
		c14.7,8.5,30.5,15.1,47.5,19.7c17,4.6,34.7,6.9,53.2,6.9c18.3,0,35.8-2.3,52.6-6.9c16.8-4.6,32.5-11.2,47.2-19.7
		c14.7-8.5,28-18.8,40-30.8c12-12,22.2-25.3,30.8-40c8.5-14.7,15.2-30.5,19.9-47.5c4.7-17,7.1-34.7,7.1-53.2
		C398,171.8,392.8,145.9,382.4,121.8z M337.9,189.5l-65.3,95.1c0,0-59.4,114-165.7,52.9c0,0-55.1-30.1-49-104.6
		c0,0,0.2-18.2,12.9-40c12.6-21.8,29.8-79.3,29.8-79.3s7-33,26.2-27.9c19.2,5.1,13.8,20.4,13.8,20.4l-12.9,64.5l-0.7,3.9
		c0,0,0.5,1.5,2.4,2.4c1.9,1,35.9,24.7,38.1,59.9c2.2,35.2-16.5,63.3-16.5,63.3s2.4,4.9,9.7,2.2c2.5-0.9,9-11.3,13.4-26.3
		c36.9-24.1,63.7-19,67.2-18.6c3.6,0.5,3.4-5.3,3.4-5.3c-0.7-4.4-4.6-3.6-4.6-3.6c-34-3-53.3,6.4-62.9,13.9
		c4.4-27.4-0.2-63.3-37.1-89.7l82.4-120.8c0,0,10.9-14.4,26-3.5c15.1,10.9,2.2,26.6,2.2,26.6l-65.3,95.2c0,0-1.8,1.5,0,2.5
		c1.8,1.1,3.5,0.7,6.7,3.8l71.7-103.7c0,0,12.6-18.6,27.1-6c14.6,12.6,1.8,26.7,1.8,26.7l-70.1,101.9c0,0-0.7,1.3,0,1.8
		c0.7,0.5,3.9,2.1,6.4,4.6c0,0,0.7,0.4,1.6-0.9c0.9-1.2,61.4-90.3,61.4-90.3s9.7-16,24.7-4.5c15,11.5,4,26.3,4,26.3l-64.5,94
		c0,0-1.6,1.1-0.6,2.8c1,1.7,4.5,4.9,5.2,7.3c0,0,0.9,0.9,2-1.5c1.2-2.4,47.3-69.1,47.3-69.1s8-14.8,24-4
		C350.2,172.9,337.9,189.5,337.9,189.5z"/>
</g>
</svg>
