<?xml version="1.0" encoding="utf-8"?>
<!-- Generator: Adobe Illustrator 22.0.1, SVG Export Plug-In . SVG Version: 6.00 Build 0)  -->
<svg version="1.1" id="Capa_1" xmlns="http://www.w3.org/2000/svg" xmlns:xlink="http://www.w3.org/1999/xlink" x="0px" y="0px"
	 viewBox="0 0 1920 1080" enable-background="new 0 0 1920 1080" xml:space="preserve">
<g>
	<path fill="#FFFFFF" d="M1125.881,358.748c-3.046-2.414-6.527-4.3-10.445-5.657c-3.917-1.352-8.485-2.031-13.708-2.031
		c-3.771,0-7.424,0.749-10.952,2.249c-3.532,1.502-6.843,3.506-9.938,6.021c-3.096,2.515-5.875,5.369-8.342,8.559
		c-2.466,3.19-4.474,6.431-6.019,9.719h74.128c-2.031-3.772-4.232-7.254-6.601-10.445
		C1131.635,363.972,1128.928,361.168,1125.881,358.748z"/>
	<path fill="#FFFFFF" d="M1009.116,548.611c-7.22-4.868-10.83,1.805-10.83,1.805s-20.785,30.083-21.304,31.15
		c-0.52,1.067-0.903,0.684-0.903,0.684c-0.328-1.094-1.914-2.516-2.352-3.282c-0.438-0.766,0.273-1.258,0.273-1.258l29.099-42.39
		c0,0,4.978-6.673-1.805-11.869c-6.783-5.196-11.158,2.024-11.158,2.024s-27.294,40.148-27.677,40.695
		c-0.383,0.547-0.711,0.383-0.711,0.383c-1.148-1.149-2.571-1.832-2.899-2.078s0-0.821,0-0.821l31.588-45.946
		c0,0,5.743-6.399-0.821-12.061c-6.563-5.661-12.225,2.708-12.225,2.708l-32.326,46.766c-1.477-1.395-2.215-1.231-3.036-1.723
		s0-1.149,0-1.149l29.455-42.91c0,0,5.825-7.056-0.985-11.979c-6.81-4.923-11.732,1.559-11.732,1.559l-37.167,54.478
		c16.616,11.888,18.712,28.104,16.708,40.445c4.34-3.385,13.014-7.657,28.362-6.287c0,0,1.75-0.328,2.079,1.641
		c0,0,0.109,2.625-1.532,2.406c-1.571-0.209-13.669-2.522-30.295,8.366c-1.983,6.794-4.875,11.451-6.024,11.872
		c-3.282,1.203-4.375-0.985-4.375-0.985s8.423-12.69,7.438-28.552c-0.984-15.862-16.299-26.583-17.175-27.02
		c-0.875-0.438-1.094-1.094-1.094-1.094l0.328-1.75l5.798-29.099c0,0,2.407-6.892-6.235-9.189s-11.815,12.58-11.815,12.58
		s-7.767,25.926-13.455,35.772c-5.688,9.846-5.798,18.05-5.798,18.05c-2.735,33.584,22.098,47.149,22.098,47.149
		c47.915,27.567,74.716-23.848,74.716-23.848l29.427-42.883C1010.757,560.972,1016.336,553.479,1009.116,548.611z"/>
	<path fill="#FFFFFF" d="M0,0v1080h1920V0H0z M727.846,315.154c0-1.812,0.406-3.483,1.221-5.011
		c0.812-1.528,2.513-3.153,2.513-3.153c1.243-1.052,2.561-1.724,3.951-2.01c1.386-0.286,2.704-0.429,3.949-0.429h21.688
		c1.724,0,3.207,0.31,4.452,0.932c1.243,0.625,2.298,1.461,3.16,2.513c0.862,1.049,1.556,2.244,2.083,3.579
		c0.524,1.338,1.027,2.72,1.508,4.152l4.452,18.333c1.436-2.957,3.182-6.323,5.242-10.096c2.059-3.772,4.788-7.305,8.188-10.601
		c3.397-3.293,7.659-6.06,12.782-8.304c5.121-2.244,11.512-3.366,19.173-3.366c12.255,0,22.98,2.604,32.172,7.805
		c9.192,5.204,16.755,12.199,22.692,20.983c1.817-2.957,4.309-6.133,7.469-9.523c3.16-3.389,6.941-6.519,11.346-9.383
		c4.403-2.864,9.454-5.225,15.152-7.089c5.696-1.861,11.993-2.793,18.886-2.793c10.916,0,20.657,2.101,29.228,6.303
		c8.569,4.199,15.847,9.929,21.831,17.187c5.983,7.255,10.533,15.735,13.645,25.439c3.111,9.704,4.668,20.06,4.668,31.07v73.072
		h-53.859v-73.072c0-4.117-0.646-7.948-1.938-11.49s-3.089-6.63-5.386-9.266c-2.298-2.633-5.099-4.69-8.402-6.174
		c-3.303-1.484-6.966-2.227-10.988-2.227c-3.639,0-7.086,0.719-10.339,2.153c-3.256,1.438-6.129,3.425-8.619,5.961
		c-2.491,2.539-4.477,5.602-5.959,9.193c-1.486,3.588-2.227,7.539-2.227,11.849v73.072h-53.859v-73.072
		c0-4.117-0.599-7.948-1.795-11.49c-1.198-3.542-2.922-6.63-5.17-9.266c-2.25-2.633-4.979-4.69-8.187-6.174
		c-3.209-1.484-6.821-2.227-10.843-2.227c-3.447,0-6.822,0.695-10.125,2.083s-6.273,3.352-8.905,5.888
		c-2.636,2.536-4.836,5.578-6.607,9.12c-1.773,3.544-2.801,7.469-3.088,11.776v73.361h-55.152V315.154z M834.567,640.045
		c-0.75,1.877-1.898,3.353-3.445,4.431c-1.547,1.079-4.194,1.616-7.944,1.616h-1.027h-15.708h-1.027
		c-3.75,0-6.397-0.538-7.945-1.616c-1.546-1.079-2.695-2.555-3.444-4.431l-64.824-158.614c-1.877-3.842-2.229-7.124-1.056-9.844
		c0.169-0.394,0.383-0.75,0.621-1.087c0.315-0.487,0.741-0.919,1.267-1.301c0.052-0.039,0.098-0.082,0.151-0.119
		c0.125-0.085,0.27-0.161,0.406-0.24c0.265-0.159,0.544-0.307,0.843-0.437c0.132-0.056,0.264-0.111,0.406-0.161
		c1.279-0.478,2.825-0.731,4.673-0.731h0.887h35.111h1.871c2.812,0,4.992,0.515,6.538,1.548c1.548,1.033,2.931,3.047,4.148,6.045
		l29.227,93.607l29.228-93.607c1.217-2.998,2.601-5.012,4.148-6.045c1.546-1.033,3.727-1.548,6.539-1.548h1.871h35.111h0.886
		c1.848,0,3.395,0.254,4.673,0.731c0.142,0.051,0.274,0.106,0.405,0.161c0.3,0.13,0.579,0.278,0.843,0.437
		c0.137,0.08,0.281,0.155,0.407,0.24c0.053,0.037,0.099,0.081,0.151,0.119c0.526,0.382,0.951,0.814,1.267,1.301
		c0.237,0.337,0.451,0.693,0.621,1.087c1.007,2.336,0.882,5.089-0.36,8.253c-0.59,0.323-1.183,0.642-1.766,0.978
		c-7.354,4.231-14.033,9.347-20.035,15.349c-5.989,5.977-11.13,12.643-15.41,19.948c-4.28,7.305-7.613,15.226-9.975,23.785
		s-3.554,17.489-3.554,26.762s1.193,18.153,3.554,26.663c0.101,0.363,0.214,0.719,0.318,1.081L834.567,640.045z M1026.885,650.053
		l-73.269,126.904c-2.581,4.47-9.033,4.47-11.614,0l-73.268-126.904c-2.581-4.47,0.645-10.058,5.807-10.058h5.507
		c5.306,4.89,11.095,9.167,17.377,12.822c7.472,4.356,15.531,7.713,24.181,10.062c8.646,2.349,17.68,3.532,27.097,3.532
		c9.317,0,18.246-1.183,26.792-3.532c8.546-2.349,16.555-5.706,24.027-10.062c6.282-3.656,12.069-7.932,17.375-12.822h4.18
		C1026.24,639.995,1029.466,645.583,1026.885,650.053z M1034.664,589.613c-2.136,7.659-5.125,14.81-8.977,21.429
		c-3.863,6.619-8.479,12.618-13.88,18.02c-5.391,5.401-11.401,10.028-18.02,13.88s-13.714,6.818-21.285,8.899
		c-7.571,2.081-15.485,3.121-23.731,3.121c-8.346,0-16.348-1.04-24.008-3.121c-7.66-2.081-14.799-5.047-21.418-8.899
		s-12.629-8.479-18.031-13.88c-5.391-5.402-10.018-11.401-13.869-18.02c-3.852-6.619-6.852-13.77-8.977-21.429
		c-2.125-7.659-3.199-15.651-3.199-23.997c0-8.346,1.074-16.382,3.199-24.085c2.125-7.704,5.125-14.832,8.977-21.407
		c3.852-6.575,8.479-12.574,13.869-17.953c5.401-5.402,11.412-10.006,18.031-13.814s13.758-6.752,21.418-8.833
		c7.66-2.103,15.662-3.143,24.008-3.143c12.331,0,23.909,2.302,34.745,6.885c10.836,4.561,20.267,10.87,28.292,18.906
		c8.025,8.014,14.378,17.444,19.049,28.27c4.66,10.847,6.995,22.558,6.995,35.176
		C1037.851,573.962,1036.789,581.954,1034.664,589.613z M1191.705,475.501c-0.193,1.488-0.576,2.95-1.151,4.391
		c-3.648,9.022-7.63,18.884-11.949,29.587c-4.319,10.703-8.808,21.837-13.462,33.401c-4.656,11.567-9.382,23.324-14.181,35.272
		c-4.801,11.951-9.479,23.685-14.037,35.202c-4.561,11.517-8.951,22.581-13.174,33.184c-4.225,10.606-8.087,20.349-11.59,29.227
		c-3.505,8.878-6.549,16.676-9.142,23.395c-2.591,6.719-4.559,11.901-5.902,15.551c0,0-1.44,3.957-3.168,5.542
		c-1.728,1.584-3.84,2.375-6.334,2.375h-33.259c-4.319,0-7.27-0.841-8.853-2.519c-1.584-1.681-2.375-4.154-2.375-7.414
		c0-1.251,0.909-3.375,1.295-4.177l22.604-58.741l-22.896-56.11c0.033-0.115,0.069-0.228,0.102-0.343
		c2.361-8.511,3.542-17.39,3.542-26.663c0-14.02-2.595-27.032-7.772-39.085c-5.19-12.028-12.25-22.506-21.166-31.41
		c-6.201-6.209-13.174-11.468-20.886-15.813c-1.113-3.359-1.012-6.274,0.33-8.739c1.486-2.736,4.773-4.104,9.862-4.104h35.561
		c2.397,0,4.366,0.744,5.902,2.232c1.535,1.488,2.686,3.336,3.457,5.542l40.744,115.897l39.88-115.897
		c1.055-3.07,2.398-5.135,4.031-6.192c1.631-1.054,3.888-1.582,6.768-1.582h37.001c2.686,0,4.798,0.36,6.334,1.078
		c1.535,0.72,2.614,1.681,3.24,2.879C1191.68,472.671,1191.896,474.013,1191.705,475.501z M1192.032,406.186
		c-0.145,3.19-0.896,5.731-2.25,7.618c-1.354,1.883-3.604,3.19-6.745,3.916c-3.144,0.723-7.761,1.086-13.854,1.086h-104.448
		c0.967,6.192,2.925,11.366,5.876,15.524c2.949,4.158,6.357,7.47,10.227,9.934c3.867,2.467,7.979,4.232,12.331,5.295
		c4.352,1.065,8.461,1.597,12.331,1.597c3.481,0,7.059-0.363,10.734-1.086c3.674-0.726,7.228-1.691,10.662-2.904
		c3.433-1.207,6.576-2.609,9.43-4.206c2.853-1.597,5.15-3.264,6.891-5.006c1.545-1.254,2.877-2.199,3.989-2.828
		c1.111-0.628,2.296-0.944,3.554-0.944c1.256,0,2.54,0.437,3.845,1.308c1.305,0.871,2.779,2.128,4.424,3.772l13.709,15.52h-144.824
		c-3.321-4.832-6.242-9.995-8.728-15.52c-5.223-11.605-7.835-24.228-7.835-37.863c0-8.509,1.039-16.755,3.12-24.732
		c2.078-7.98,5.028-15.451,8.848-22.413c3.821-6.965,8.461-13.37,13.928-19.222c5.461-5.85,11.58-10.855,18.35-15.014
		c6.769-4.158,14.119-7.399,22.05-9.719c7.928-2.323,16.295-3.483,25.097-3.483c8.026,0,15.812,1.065,23.355,3.19
		c7.544,2.128,14.627,5.126,21.251,8.996c6.625,3.869,12.694,8.512,18.206,13.925c5.513,5.418,10.25,11.342,14.217,17.77
		c3.964,6.434,7.036,13.299,9.212,20.601c2.175,7.302,3.263,14.822,3.263,22.557
		C1192.249,398.884,1192.176,402.995,1192.032,406.186z"/>
</g>
</svg>
